<mxfile host="app.diagrams.net" agent="Mozilla/5.0 (Macintosh; Intel Mac OS X 10_15_7) AppleWebKit/605.1.15 (KHTML, like Gecko) Version/17.5 Safari/605.1.15" version="28.0.4">
  <diagram name="Page-1" id="jWFQC7bpfCBTl_eIj87q">
    <mxGraphModel dx="1496" dy="836" grid="1" gridSize="10" guides="1" tooltips="1" connect="1" arrows="1" fold="1" page="1" pageScale="1" pageWidth="827" pageHeight="1169" math="0" shadow="0">
      <root>
        <mxCell id="0" />
        <mxCell id="1" parent="0" />
        <mxCell id="xYCTp34HkB9L3DhMsMEr-1" value="ทบทวนสัญลักษณ์" style="swimlane;fontFamily=Sarabun;fontSource=https%3A%2F%2Ffonts.googleapis.com%2Fcss%3Ffamily%3DSarabun;" vertex="1" parent="1">
          <mxGeometry x="-720" y="20" width="640" height="290" as="geometry" />
        </mxCell>
        <mxCell id="xYCTp34HkB9L3DhMsMEr-2" value="&lt;font data-font-src=&quot;https://fonts.googleapis.com/css?family=Sarabun&quot; face=&quot;Sarabun&quot;&gt;เริ่มต้น&lt;/font&gt;" style="ellipse;whiteSpace=wrap;html=1;" vertex="1" parent="xYCTp34HkB9L3DhMsMEr-1">
          <mxGeometry x="20" y="40" width="130" height="30" as="geometry" />
        </mxCell>
        <mxCell id="xYCTp34HkB9L3DhMsMEr-3" value="" style="endArrow=classic;html=1;rounded=0;" edge="1" parent="xYCTp34HkB9L3DhMsMEr-1">
          <mxGeometry width="50" height="50" relative="1" as="geometry">
            <mxPoint x="84.5" y="70" as="sourcePoint" />
            <mxPoint x="84.5" y="120" as="targetPoint" />
          </mxGeometry>
        </mxCell>
        <mxCell id="xYCTp34HkB9L3DhMsMEr-4" value="&lt;font face=&quot;Sarabun&quot;&gt;สิ้นสุด&lt;/font&gt;" style="ellipse;whiteSpace=wrap;html=1;" vertex="1" parent="xYCTp34HkB9L3DhMsMEr-1">
          <mxGeometry x="150" y="90" width="130" height="30" as="geometry" />
        </mxCell>
        <mxCell id="xYCTp34HkB9L3DhMsMEr-5" value="" style="endArrow=classic;html=1;rounded=0;" edge="1" parent="xYCTp34HkB9L3DhMsMEr-1">
          <mxGeometry width="50" height="50" relative="1" as="geometry">
            <mxPoint x="214.5" y="40" as="sourcePoint" />
            <mxPoint x="214.5" y="90" as="targetPoint" />
          </mxGeometry>
        </mxCell>
        <mxCell id="xYCTp34HkB9L3DhMsMEr-6" value="กระบวนการ" style="rounded=0;whiteSpace=wrap;html=1;fontFamily=Sarabun;fontSource=https%3A%2F%2Ffonts.googleapis.com%2Fcss%3Ffamily%3DSarabun;" vertex="1" parent="xYCTp34HkB9L3DhMsMEr-1">
          <mxGeometry x="320" y="70" width="120" height="30" as="geometry" />
        </mxCell>
        <mxCell id="xYCTp34HkB9L3DhMsMEr-7" value="" style="endArrow=classic;html=1;rounded=0;" edge="1" parent="xYCTp34HkB9L3DhMsMEr-1">
          <mxGeometry width="50" height="50" relative="1" as="geometry">
            <mxPoint x="379" y="40" as="sourcePoint" />
            <mxPoint x="379.5" y="70" as="targetPoint" />
          </mxGeometry>
        </mxCell>
        <mxCell id="xYCTp34HkB9L3DhMsMEr-8" value="" style="endArrow=classic;html=1;rounded=0;" edge="1" parent="xYCTp34HkB9L3DhMsMEr-1">
          <mxGeometry width="50" height="50" relative="1" as="geometry">
            <mxPoint x="379.75" y="100" as="sourcePoint" />
            <mxPoint x="380.25" y="130" as="targetPoint" />
          </mxGeometry>
        </mxCell>
        <mxCell id="xYCTp34HkB9L3DhMsMEr-9" value="ประโยคเงื่อนไข" style="rhombus;whiteSpace=wrap;html=1;fontFamily=Sarabun;fontSource=https%3A%2F%2Ffonts.googleapis.com%2Fcss%3Ffamily%3DSarabun;" vertex="1" parent="xYCTp34HkB9L3DhMsMEr-1">
          <mxGeometry x="490" y="60" width="100" height="60" as="geometry" />
        </mxCell>
        <mxCell id="xYCTp34HkB9L3DhMsMEr-10" value="" style="endArrow=classic;html=1;rounded=0;" edge="1" parent="xYCTp34HkB9L3DhMsMEr-1">
          <mxGeometry width="50" height="50" relative="1" as="geometry">
            <mxPoint x="539.71" y="30" as="sourcePoint" />
            <mxPoint x="540.21" y="60" as="targetPoint" />
          </mxGeometry>
        </mxCell>
        <mxCell id="xYCTp34HkB9L3DhMsMEr-11" value="" style="endArrow=classic;html=1;rounded=0;" edge="1" parent="xYCTp34HkB9L3DhMsMEr-1">
          <mxGeometry width="50" height="50" relative="1" as="geometry">
            <mxPoint x="539.71" y="120" as="sourcePoint" />
            <mxPoint x="540" y="175" as="targetPoint" />
          </mxGeometry>
        </mxCell>
        <mxCell id="xYCTp34HkB9L3DhMsMEr-12" value="จริง" style="edgeLabel;html=1;align=center;verticalAlign=middle;resizable=0;points=[];fontFamily=Sarabun;fontSource=https%3A%2F%2Ffonts.googleapis.com%2Fcss%3Ffamily%3DSarabun;" vertex="1" connectable="0" parent="xYCTp34HkB9L3DhMsMEr-11">
          <mxGeometry x="-0.4142" y="-1" relative="1" as="geometry">
            <mxPoint as="offset" />
          </mxGeometry>
        </mxCell>
        <mxCell id="xYCTp34HkB9L3DhMsMEr-13" value="" style="endArrow=classic;html=1;rounded=0;exitX=1;exitY=0.5;exitDx=0;exitDy=0;" edge="1" parent="xYCTp34HkB9L3DhMsMEr-1" source="xYCTp34HkB9L3DhMsMEr-9">
          <mxGeometry width="50" height="50" relative="1" as="geometry">
            <mxPoint x="620" y="95" as="sourcePoint" />
            <mxPoint x="610" y="175" as="targetPoint" />
            <Array as="points">
              <mxPoint x="610" y="90" />
            </Array>
          </mxGeometry>
        </mxCell>
        <mxCell id="xYCTp34HkB9L3DhMsMEr-14" value="&lt;font data-font-src=&quot;https://fonts.googleapis.com/css?family=Sarabun&quot; face=&quot;Sarabun&quot;&gt;เท็จ&lt;/font&gt;" style="edgeLabel;html=1;align=center;verticalAlign=middle;resizable=0;points=[];" vertex="1" connectable="0" parent="xYCTp34HkB9L3DhMsMEr-13">
          <mxGeometry x="-0.0019" y="-2" relative="1" as="geometry">
            <mxPoint as="offset" />
          </mxGeometry>
        </mxCell>
        <mxCell id="xYCTp34HkB9L3DhMsMEr-15" value="&lt;font data-font-src=&quot;https://fonts.googleapis.com/css?family=Sarabun&quot; face=&quot;Sarabun&quot;&gt;ฟังก์ชัน/โมดูล&lt;/font&gt;" style="shape=process;whiteSpace=wrap;html=1;backgroundOutline=1;" vertex="1" parent="xYCTp34HkB9L3DhMsMEr-1">
          <mxGeometry x="25" y="180" width="120" height="30" as="geometry" />
        </mxCell>
        <mxCell id="xYCTp34HkB9L3DhMsMEr-16" value="" style="endArrow=classic;html=1;rounded=0;" edge="1" parent="xYCTp34HkB9L3DhMsMEr-1">
          <mxGeometry width="50" height="50" relative="1" as="geometry">
            <mxPoint x="84.70999999999998" y="150" as="sourcePoint" />
            <mxPoint x="85.20999999999998" y="180" as="targetPoint" />
          </mxGeometry>
        </mxCell>
        <mxCell id="xYCTp34HkB9L3DhMsMEr-17" value="" style="endArrow=classic;html=1;rounded=0;" edge="1" parent="xYCTp34HkB9L3DhMsMEr-1">
          <mxGeometry width="50" height="50" relative="1" as="geometry">
            <mxPoint x="84.70999999999998" y="210" as="sourcePoint" />
            <mxPoint x="85.20999999999998" y="240" as="targetPoint" />
          </mxGeometry>
        </mxCell>
        <mxCell id="xYCTp34HkB9L3DhMsMEr-18" value="" style="strokeWidth=2;html=1;shape=mxgraph.flowchart.start_2;whiteSpace=wrap;" vertex="1" parent="xYCTp34HkB9L3DhMsMEr-1">
          <mxGeometry x="205" y="185" width="20" height="20" as="geometry" />
        </mxCell>
        <mxCell id="xYCTp34HkB9L3DhMsMEr-19" value="" style="endArrow=classic;html=1;rounded=0;" edge="1" parent="xYCTp34HkB9L3DhMsMEr-1">
          <mxGeometry width="50" height="50" relative="1" as="geometry">
            <mxPoint x="214.70999999999998" y="155" as="sourcePoint" />
            <mxPoint x="215.20999999999998" y="185" as="targetPoint" />
          </mxGeometry>
        </mxCell>
        <mxCell id="xYCTp34HkB9L3DhMsMEr-20" value="" style="endArrow=classic;html=1;rounded=0;entryX=0;entryY=0.5;entryDx=0;entryDy=0;entryPerimeter=0;" edge="1" parent="xYCTp34HkB9L3DhMsMEr-1" target="xYCTp34HkB9L3DhMsMEr-18">
          <mxGeometry width="50" height="50" relative="1" as="geometry">
            <mxPoint x="189.99999999999997" y="155" as="sourcePoint" />
            <mxPoint x="190.49999999999997" y="185" as="targetPoint" />
            <Array as="points">
              <mxPoint x="190" y="180" />
            </Array>
          </mxGeometry>
        </mxCell>
        <mxCell id="xYCTp34HkB9L3DhMsMEr-21" value="" style="endArrow=classic;html=1;rounded=0;entryX=1;entryY=0.5;entryDx=0;entryDy=0;entryPerimeter=0;" edge="1" parent="xYCTp34HkB9L3DhMsMEr-1" target="xYCTp34HkB9L3DhMsMEr-18">
          <mxGeometry width="50" height="50" relative="1" as="geometry">
            <mxPoint x="239.99999999999997" y="155" as="sourcePoint" />
            <mxPoint x="240.49999999999997" y="185" as="targetPoint" />
            <Array as="points">
              <mxPoint x="240" y="180" />
            </Array>
          </mxGeometry>
        </mxCell>
        <mxCell id="xYCTp34HkB9L3DhMsMEr-22" value="" style="endArrow=classic;html=1;rounded=0;" edge="1" parent="xYCTp34HkB9L3DhMsMEr-1">
          <mxGeometry width="50" height="50" relative="1" as="geometry">
            <mxPoint x="214.70999999999998" y="205" as="sourcePoint" />
            <mxPoint x="215.20999999999998" y="235" as="targetPoint" />
          </mxGeometry>
        </mxCell>
        <mxCell id="xYCTp34HkB9L3DhMsMEr-23" value="&lt;font data-font-src=&quot;https://fonts.googleapis.com/css?family=Sarabun&quot; face=&quot;Sarabun&quot;&gt;ตัวเชื่อม&lt;/font&gt;" style="text;html=1;align=center;verticalAlign=middle;resizable=0;points=[];autosize=1;strokeColor=none;fillColor=none;" vertex="1" parent="xYCTp34HkB9L3DhMsMEr-1">
          <mxGeometry x="220" y="190" width="60" height="30" as="geometry" />
        </mxCell>
        <mxCell id="xYCTp34HkB9L3DhMsMEr-24" value="" style="endArrow=classic;html=1;rounded=0;" edge="1" parent="xYCTp34HkB9L3DhMsMEr-1">
          <mxGeometry width="50" height="50" relative="1" as="geometry">
            <mxPoint x="353.71" y="165" as="sourcePoint" />
            <mxPoint x="354.21" y="195" as="targetPoint" />
          </mxGeometry>
        </mxCell>
        <mxCell id="xYCTp34HkB9L3DhMsMEr-25" value="" style="verticalLabelPosition=bottom;verticalAlign=top;html=1;shape=offPageConnector;rounded=0;size=0.5;" vertex="1" parent="xYCTp34HkB9L3DhMsMEr-1">
          <mxGeometry x="339" y="195" width="30" height="30" as="geometry" />
        </mxCell>
        <mxCell id="xYCTp34HkB9L3DhMsMEr-26" value="" style="endArrow=classic;html=1;rounded=0;" edge="1" parent="xYCTp34HkB9L3DhMsMEr-1">
          <mxGeometry width="50" height="50" relative="1" as="geometry">
            <mxPoint x="405.71" y="195" as="sourcePoint" />
            <mxPoint x="406.21" y="225" as="targetPoint" />
          </mxGeometry>
        </mxCell>
        <mxCell id="xYCTp34HkB9L3DhMsMEr-27" value="" style="verticalLabelPosition=bottom;verticalAlign=top;html=1;shape=offPageConnector;rounded=0;size=0.5;" vertex="1" parent="xYCTp34HkB9L3DhMsMEr-1">
          <mxGeometry x="391" y="165" width="30" height="30" as="geometry" />
        </mxCell>
        <mxCell id="xYCTp34HkB9L3DhMsMEr-28" value="หน้าต่อไป" style="text;html=1;align=center;verticalAlign=middle;resizable=0;points=[];autosize=1;strokeColor=none;fillColor=none;fontFamily=Sarabun;fontSource=https%3A%2F%2Ffonts.googleapis.com%2Fcss%3Ffamily%3DSarabun;" vertex="1" parent="xYCTp34HkB9L3DhMsMEr-1">
          <mxGeometry x="345" y="220" width="70" height="30" as="geometry" />
        </mxCell>
        <mxCell id="xYCTp34HkB9L3DhMsMEr-29" value="ก" style="text;html=1;align=center;verticalAlign=middle;resizable=0;points=[];autosize=1;strokeColor=none;fillColor=none;fontFamily=Sarabun;fontSource=https%3A%2F%2Ffonts.googleapis.com%2Fcss%3Ffamily%3DSarabun;" vertex="1" parent="xYCTp34HkB9L3DhMsMEr-1">
          <mxGeometry x="339" y="190" width="30" height="30" as="geometry" />
        </mxCell>
        <mxCell id="xYCTp34HkB9L3DhMsMEr-30" value="ก" style="text;html=1;align=center;verticalAlign=middle;resizable=0;points=[];autosize=1;strokeColor=none;fillColor=none;fontFamily=Sarabun;fontSource=https%3A%2F%2Ffonts.googleapis.com%2Fcss%3Ffamily%3DSarabun;" vertex="1" parent="xYCTp34HkB9L3DhMsMEr-1">
          <mxGeometry x="391" y="160" width="30" height="30" as="geometry" />
        </mxCell>
        <mxCell id="xYCTp34HkB9L3DhMsMEr-31" value="แสดงผล/รับค่า" style="shape=parallelogram;perimeter=parallelogramPerimeter;whiteSpace=wrap;html=1;fixedSize=1;fontFamily=Sarabun;fontSource=https%3A%2F%2Ffonts.googleapis.com%2Fcss%3Ffamily%3DSarabun;" vertex="1" parent="xYCTp34HkB9L3DhMsMEr-1">
          <mxGeometry x="450" y="210" width="120" height="30" as="geometry" />
        </mxCell>
        <mxCell id="xYCTp34HkB9L3DhMsMEr-32" value="" style="endArrow=classic;html=1;rounded=0;" edge="1" parent="xYCTp34HkB9L3DhMsMEr-1">
          <mxGeometry width="50" height="50" relative="1" as="geometry">
            <mxPoint x="509.71" y="180" as="sourcePoint" />
            <mxPoint x="510.21" y="210" as="targetPoint" />
          </mxGeometry>
        </mxCell>
        <mxCell id="xYCTp34HkB9L3DhMsMEr-33" value="" style="endArrow=classic;html=1;rounded=0;" edge="1" parent="xYCTp34HkB9L3DhMsMEr-1">
          <mxGeometry width="50" height="50" relative="1" as="geometry">
            <mxPoint x="509.71" y="240" as="sourcePoint" />
            <mxPoint x="510.21" y="270" as="targetPoint" />
          </mxGeometry>
        </mxCell>
        <mxCell id="xYCTp34HkB9L3DhMsMEr-34" value="แก้ไขโจทย์ปัญหา" style="swimlane;fontFamily=Sarabun;fontSource=https%3A%2F%2Ffonts.googleapis.com%2Fcss%3Ffamily%3DSarabun;" vertex="1" parent="1">
          <mxGeometry x="-720" y="640" width="840" height="857" as="geometry" />
        </mxCell>
        <mxCell id="xYCTp34HkB9L3DhMsMEr-40" value="" style="edgeStyle=orthogonalEdgeStyle;rounded=0;orthogonalLoop=1;jettySize=auto;html=1;" edge="1" parent="xYCTp34HkB9L3DhMsMEr-34" source="xYCTp34HkB9L3DhMsMEr-35" target="xYCTp34HkB9L3DhMsMEr-39">
          <mxGeometry relative="1" as="geometry" />
        </mxCell>
        <mxCell id="xYCTp34HkB9L3DhMsMEr-35" value="&lt;font data-font-src=&quot;https://fonts.googleapis.com/css?family=Sarabun&quot; face=&quot;Sarabun&quot;&gt;เริ่มต้น&lt;/font&gt;" style="ellipse;whiteSpace=wrap;html=1;" vertex="1" parent="xYCTp34HkB9L3DhMsMEr-34">
          <mxGeometry x="255" y="40" width="130" height="30" as="geometry" />
        </mxCell>
        <mxCell id="xYCTp34HkB9L3DhMsMEr-36" value="&lt;font face=&quot;Sarabun&quot;&gt;สิ้นสุด&lt;/font&gt;" style="ellipse;whiteSpace=wrap;html=1;" vertex="1" parent="xYCTp34HkB9L3DhMsMEr-34">
          <mxGeometry x="252" y="775" width="130" height="30" as="geometry" />
        </mxCell>
        <mxCell id="xYCTp34HkB9L3DhMsMEr-42" value="" style="edgeStyle=orthogonalEdgeStyle;rounded=0;orthogonalLoop=1;jettySize=auto;html=1;" edge="1" parent="xYCTp34HkB9L3DhMsMEr-34" source="xYCTp34HkB9L3DhMsMEr-39" target="xYCTp34HkB9L3DhMsMEr-41">
          <mxGeometry relative="1" as="geometry" />
        </mxCell>
        <mxCell id="xYCTp34HkB9L3DhMsMEr-39" value="แสดงเมนูทั้งหมด" style="whiteSpace=wrap;html=1;" vertex="1" parent="xYCTp34HkB9L3DhMsMEr-34">
          <mxGeometry x="260" y="96" width="120" height="60" as="geometry" />
        </mxCell>
        <mxCell id="xYCTp34HkB9L3DhMsMEr-44" value="" style="edgeStyle=orthogonalEdgeStyle;rounded=0;orthogonalLoop=1;jettySize=auto;html=1;" edge="1" parent="xYCTp34HkB9L3DhMsMEr-34" source="xYCTp34HkB9L3DhMsMEr-41" target="xYCTp34HkB9L3DhMsMEr-43">
          <mxGeometry relative="1" as="geometry" />
        </mxCell>
        <mxCell id="xYCTp34HkB9L3DhMsMEr-41" value="รอลูกค้าเลือกเมนู&lt;div&gt;(เลือกได้หลายเมนู)&lt;/div&gt;" style="whiteSpace=wrap;html=1;" vertex="1" parent="xYCTp34HkB9L3DhMsMEr-34">
          <mxGeometry x="260" y="183" width="120" height="60" as="geometry" />
        </mxCell>
        <mxCell id="xYCTp34HkB9L3DhMsMEr-46" value="" style="edgeStyle=orthogonalEdgeStyle;rounded=0;orthogonalLoop=1;jettySize=auto;html=1;" edge="1" parent="xYCTp34HkB9L3DhMsMEr-34" source="xYCTp34HkB9L3DhMsMEr-43" target="xYCTp34HkB9L3DhMsMEr-45">
          <mxGeometry relative="1" as="geometry" />
        </mxCell>
        <mxCell id="xYCTp34HkB9L3DhMsMEr-48" value="" style="edgeStyle=orthogonalEdgeStyle;rounded=0;orthogonalLoop=1;jettySize=auto;html=1;" edge="1" parent="xYCTp34HkB9L3DhMsMEr-34" source="xYCTp34HkB9L3DhMsMEr-43" target="xYCTp34HkB9L3DhMsMEr-47">
          <mxGeometry relative="1" as="geometry" />
        </mxCell>
        <mxCell id="xYCTp34HkB9L3DhMsMEr-43" value="ลูกค้าเลือกเมนู" style="rhombus;whiteSpace=wrap;html=1;" vertex="1" parent="xYCTp34HkB9L3DhMsMEr-34">
          <mxGeometry x="280" y="263" width="80" height="80" as="geometry" />
        </mxCell>
        <mxCell id="xYCTp34HkB9L3DhMsMEr-66" value="" style="edgeStyle=orthogonalEdgeStyle;rounded=0;orthogonalLoop=1;jettySize=auto;html=1;entryX=0.5;entryY=0;entryDx=0;entryDy=0;" edge="1" parent="xYCTp34HkB9L3DhMsMEr-34" source="xYCTp34HkB9L3DhMsMEr-45" target="xYCTp34HkB9L3DhMsMEr-59">
          <mxGeometry relative="1" as="geometry">
            <mxPoint x="480" y="444.0000000000002" as="targetPoint" />
          </mxGeometry>
        </mxCell>
        <mxCell id="xYCTp34HkB9L3DhMsMEr-45" value="คำนวณราคารวมจากเมนูที่เลือก" style="whiteSpace=wrap;html=1;" vertex="1" parent="xYCTp34HkB9L3DhMsMEr-34">
          <mxGeometry x="420" y="274" width="120" height="60" as="geometry" />
        </mxCell>
        <mxCell id="xYCTp34HkB9L3DhMsMEr-50" value="" style="edgeStyle=orthogonalEdgeStyle;rounded=0;orthogonalLoop=1;jettySize=auto;html=1;" edge="1" parent="xYCTp34HkB9L3DhMsMEr-34" source="xYCTp34HkB9L3DhMsMEr-47" target="xYCTp34HkB9L3DhMsMEr-49">
          <mxGeometry relative="1" as="geometry" />
        </mxCell>
        <mxCell id="xYCTp34HkB9L3DhMsMEr-47" value="รอลูกค้าชำระเงิน" style="whiteSpace=wrap;html=1;" vertex="1" parent="xYCTp34HkB9L3DhMsMEr-34">
          <mxGeometry x="260" y="366" width="120" height="60" as="geometry" />
        </mxCell>
        <mxCell id="xYCTp34HkB9L3DhMsMEr-52" value="" style="edgeStyle=orthogonalEdgeStyle;rounded=0;orthogonalLoop=1;jettySize=auto;html=1;" edge="1" parent="xYCTp34HkB9L3DhMsMEr-34" source="xYCTp34HkB9L3DhMsMEr-49" target="xYCTp34HkB9L3DhMsMEr-51">
          <mxGeometry relative="1" as="geometry" />
        </mxCell>
        <mxCell id="xYCTp34HkB9L3DhMsMEr-64" value="" style="edgeStyle=orthogonalEdgeStyle;rounded=0;orthogonalLoop=1;jettySize=auto;html=1;" edge="1" parent="xYCTp34HkB9L3DhMsMEr-34" source="xYCTp34HkB9L3DhMsMEr-49" target="xYCTp34HkB9L3DhMsMEr-63">
          <mxGeometry relative="1" as="geometry" />
        </mxCell>
        <mxCell id="xYCTp34HkB9L3DhMsMEr-49" value="ลูกค้าชำระเงิน" style="rhombus;whiteSpace=wrap;html=1;" vertex="1" parent="xYCTp34HkB9L3DhMsMEr-34">
          <mxGeometry x="280" y="453" width="80" height="80" as="geometry" />
        </mxCell>
        <mxCell id="xYCTp34HkB9L3DhMsMEr-58" value="" style="edgeStyle=orthogonalEdgeStyle;rounded=0;orthogonalLoop=1;jettySize=auto;html=1;" edge="1" parent="xYCTp34HkB9L3DhMsMEr-34" source="xYCTp34HkB9L3DhMsMEr-51" target="xYCTp34HkB9L3DhMsMEr-57">
          <mxGeometry relative="1" as="geometry" />
        </mxCell>
        <mxCell id="xYCTp34HkB9L3DhMsMEr-51" value="เตรียมสินค้าตามเมนูที่เลือก" style="whiteSpace=wrap;html=1;" vertex="1" parent="xYCTp34HkB9L3DhMsMEr-34">
          <mxGeometry x="260" y="558" width="120" height="60" as="geometry" />
        </mxCell>
        <mxCell id="xYCTp34HkB9L3DhMsMEr-60" value="" style="edgeStyle=orthogonalEdgeStyle;rounded=0;orthogonalLoop=1;jettySize=auto;html=1;" edge="1" parent="xYCTp34HkB9L3DhMsMEr-34" source="xYCTp34HkB9L3DhMsMEr-57" target="xYCTp34HkB9L3DhMsMEr-59">
          <mxGeometry relative="1" as="geometry" />
        </mxCell>
        <mxCell id="xYCTp34HkB9L3DhMsMEr-57" value="ส่งมอบสินค้าให้ลูกค้า" style="whiteSpace=wrap;html=1;" vertex="1" parent="xYCTp34HkB9L3DhMsMEr-34">
          <mxGeometry x="260" y="656" width="120" height="60" as="geometry" />
        </mxCell>
        <mxCell id="xYCTp34HkB9L3DhMsMEr-73" value="" style="edgeStyle=orthogonalEdgeStyle;rounded=0;orthogonalLoop=1;jettySize=auto;html=1;" edge="1" parent="xYCTp34HkB9L3DhMsMEr-34" source="xYCTp34HkB9L3DhMsMEr-59" target="xYCTp34HkB9L3DhMsMEr-72">
          <mxGeometry relative="1" as="geometry" />
        </mxCell>
        <mxCell id="xYCTp34HkB9L3DhMsMEr-59" value="ทอนเงินให้ลูกค้า" style="whiteSpace=wrap;html=1;" vertex="1" parent="xYCTp34HkB9L3DhMsMEr-34">
          <mxGeometry x="421" y="657" width="120" height="60" as="geometry" />
        </mxCell>
        <mxCell id="xYCTp34HkB9L3DhMsMEr-76" value="" style="edgeStyle=orthogonalEdgeStyle;rounded=0;orthogonalLoop=1;jettySize=auto;html=1;entryX=0;entryY=0.5;entryDx=0;entryDy=0;" edge="1" parent="xYCTp34HkB9L3DhMsMEr-34" source="xYCTp34HkB9L3DhMsMEr-63" target="xYCTp34HkB9L3DhMsMEr-47">
          <mxGeometry relative="1" as="geometry">
            <mxPoint x="160" y="353" as="targetPoint" />
            <Array as="points">
              <mxPoint x="160" y="396" />
            </Array>
          </mxGeometry>
        </mxCell>
        <mxCell id="xYCTp34HkB9L3DhMsMEr-63" value="แจ้งเตือนลูกค้า&lt;div&gt;ชำระเงินไม่สำเร็จ&lt;/div&gt;" style="whiteSpace=wrap;html=1;" vertex="1" parent="xYCTp34HkB9L3DhMsMEr-34">
          <mxGeometry x="100" y="463" width="120" height="60" as="geometry" />
        </mxCell>
        <mxCell id="xYCTp34HkB9L3DhMsMEr-70" value="no" style="text;html=1;align=center;verticalAlign=middle;whiteSpace=wrap;rounded=0;" vertex="1" parent="xYCTp34HkB9L3DhMsMEr-34">
          <mxGeometry x="229" y="463" width="60" height="30" as="geometry" />
        </mxCell>
        <mxCell id="xYCTp34HkB9L3DhMsMEr-69" value="yes" style="text;html=1;align=center;verticalAlign=middle;whiteSpace=wrap;rounded=0;" vertex="1" parent="xYCTp34HkB9L3DhMsMEr-34">
          <mxGeometry x="307" y="528" width="60" height="30" as="geometry" />
        </mxCell>
        <mxCell id="xYCTp34HkB9L3DhMsMEr-74" value="" style="edgeStyle=orthogonalEdgeStyle;rounded=0;orthogonalLoop=1;jettySize=auto;html=1;" edge="1" parent="xYCTp34HkB9L3DhMsMEr-34" source="xYCTp34HkB9L3DhMsMEr-72" target="xYCTp34HkB9L3DhMsMEr-36">
          <mxGeometry relative="1" as="geometry" />
        </mxCell>
        <mxCell id="xYCTp34HkB9L3DhMsMEr-72" value="แสดงคำขอบคุณ" style="whiteSpace=wrap;html=1;" vertex="1" parent="xYCTp34HkB9L3DhMsMEr-34">
          <mxGeometry x="421" y="760" width="120" height="60" as="geometry" />
        </mxCell>
        <mxCell id="xYCTp34HkB9L3DhMsMEr-37" value="&lt;font data-font-src=&quot;https://fonts.googleapis.com/css?family=Sarabun&quot; face=&quot;Sarabun&quot;&gt;โจทย์ปัญหา&lt;/font&gt;" style="swimlane;whiteSpace=wrap;html=1;" vertex="1" parent="1">
          <mxGeometry x="-720" y="320" width="640" height="265" as="geometry" />
        </mxCell>
        <mxCell id="xYCTp34HkB9L3DhMsMEr-38" value="&lt;font data-font-src=&quot;https://fonts.googleapis.com/css?family=Sarabun&quot; face=&quot;Sarabun&quot; style=&quot;font-size: 14px;&quot;&gt;จงเขียน Flowchart เพื่อแสดงขั้นตอนการทำงาน ของเครื่องขายน้ำอัตโนมัติที่ชื่อว่า &quot;ตะพาบลอย&quot;&lt;br&gt;โดยจะต้องมีสินค้าดังนี้&lt;br&gt;&lt;u&gt;ประเภทน้ำ&lt;span style=&quot;white-space: pre;&quot;&gt;&#x9;&lt;/span&gt;&lt;span style=&quot;white-space: pre;&quot;&gt;&#x9;&lt;/span&gt;&lt;span style=&quot;white-space: pre;&quot;&gt;&#x9;&lt;/span&gt;&lt;span style=&quot;white-space: pre;&quot;&gt;&#x9;&lt;/span&gt;&lt;span style=&quot;white-space: pre;&quot;&gt;&#x9;&lt;/span&gt;&lt;span style=&quot;white-space: pre;&quot;&gt;&#x9;&lt;span style=&quot;white-space: pre;&quot;&gt;&#x9;&lt;/span&gt;ข&lt;/span&gt;นม&lt;/u&gt;&lt;br&gt;&lt;span style=&quot;white-space: pre;&quot;&gt;&#x9;&lt;/span&gt;- โค้ก กระป๋องละ 10 บาท&lt;span style=&quot;white-space: pre;&quot;&gt;&#x9;&lt;/span&gt;&lt;span style=&quot;white-space: pre;&quot;&gt;&#x9;&lt;/span&gt;&lt;span style=&quot;white-space: pre;&quot;&gt;&#x9;&lt;/span&gt;&lt;span style=&quot;white-space: pre;&quot;&gt;&#x9;&lt;/span&gt;- เมล็ดทานตะวัน 13 บาท&lt;br&gt;&lt;span style=&quot;white-space: pre;&quot;&gt;&#x9;&lt;/span&gt;- น้ำเขียว กระป๋องละ 12 บาท&lt;span style=&quot;white-space: pre;&quot;&gt;&#x9;&lt;/span&gt;&lt;span style=&quot;white-space: pre;&quot;&gt;&#x9;&lt;/span&gt;&lt;span style=&quot;white-space: pre;&quot;&gt;&#x9;&lt;/span&gt;- ถั่วแปบ 20 บาท&lt;br&gt;&lt;span style=&quot;white-space: pre;&quot;&gt;&#x9;&lt;/span&gt;- อเมริกาโน่ 30 บาท&lt;span style=&quot;white-space: pre;&quot;&gt;&#x9;&lt;/span&gt;&lt;span style=&quot;white-space: pre;&quot;&gt;&#x9;&lt;/span&gt;&lt;span style=&quot;white-space: pre;&quot;&gt;&#x9;&lt;/span&gt;&lt;span style=&quot;white-space: pre;&quot;&gt;&#x9;&lt;/span&gt;&lt;span style=&quot;white-space: pre;&quot;&gt;&#x9;&lt;/span&gt;- จิ้นส้มหมก 15 บาท&lt;br&gt;&lt;span style=&quot;white-space: pre;&quot;&gt;&#x9;&lt;/span&gt;- ลาเต้ หวานเจี๊ยบ 35 บาท&lt;span style=&quot;white-space: pre;&quot;&gt;&#x9;&lt;/span&gt;&lt;br&gt;&lt;br&gt;&lt;u&gt;สิ่งที่ระบบควรจะทำได้&lt;/u&gt;&lt;br&gt;&lt;span style=&quot;white-space: pre;&quot;&gt;&#x9;&lt;/span&gt;- ลูกค้าเลือกสินค้า, ระบบจะต้องรวมยอดขาย และรวมรายการสินค้าทั้งหมดที่ลูกค้าเลือก&lt;br&gt;&lt;span style=&quot;white-space: pre;&quot;&gt;&#x9;&lt;/span&gt;- สรุปยอดว่าเหลือเงินในตู้อีกเท่าไหร่ เหลือเหรียญอะไรบ้าง? ธนบัตรอะไรบ้าง? อย่างละเท่าไหร่?&lt;br&gt;&lt;br&gt;&lt;br&gt;&lt;/font&gt;" style="text;html=1;align=left;verticalAlign=middle;resizable=0;points=[];autosize=1;strokeColor=none;fillColor=none;fontSize=14;" vertex="1" parent="xYCTp34HkB9L3DhMsMEr-37">
          <mxGeometry x="25" y="35" width="580" height="230" as="geometry" />
        </mxCell>
      </root>
    </mxGraphModel>
  </diagram>
</mxfile>
